<svg width="575" height="176" viewBox="0 0 575 176" fill="none" xmlns="http://www.w3.org/2000/svg">
<path d="M1.16895 14V1.31738H9.21973V3.01367H3.1377V6.71387H8.89453V8.36621H3.1377V12.3037H9.21973V14H1.16895ZM10.3184 14L13.377 9.38574L10.3623 4.75391H12.498L14.5107 8.10254H14.5547L16.541 4.75391H18.6416L15.6006 9.32422L18.6064 14H16.5146L14.4668 10.5986H14.4229L12.375 14H10.3184ZM23.5986 14.1846C20.9004 14.1846 19.2129 12.3301 19.2129 9.36816V9.35938C19.2129 6.43262 20.9355 4.57812 23.5723 4.57812C25.9541 4.57812 27.3955 6.10742 27.5537 7.84766L27.5625 7.90918H25.752L25.7344 7.83887C25.5322 6.93359 24.8291 6.16895 23.5898 6.16895C22.1133 6.16895 21.1553 7.39941 21.1553 9.37695V9.38574C21.1553 11.4072 22.1309 12.5938 23.5986 12.5938C24.7676 12.5938 25.5146 11.917 25.7432 10.915L25.752 10.8447H27.5801L27.5713 10.9062C27.3691 12.7607 25.8223 14.1846 23.5986 14.1846ZM32.8711 14.1846C30.1553 14.1846 28.5117 12.3301 28.5117 9.41211V9.40332C28.5117 6.51172 30.1816 4.57812 32.7744 4.57812C35.3672 4.57812 36.958 6.44141 36.958 9.21875V9.86035H30.4102C30.4453 11.6094 31.4033 12.6289 32.915 12.6289C34.04 12.6289 34.7871 12.0488 35.0244 11.3545L35.0508 11.2842H36.8525L36.835 11.3809C36.5361 12.8486 35.1123 14.1846 32.8711 14.1846ZM32.7832 6.13379C31.5527 6.13379 30.6035 6.96875 30.4365 8.51562H35.0771C34.9189 6.91602 34.0225 6.13379 32.7832 6.13379ZM38.5049 14V1.31738H40.4033V14H38.5049ZM42.4248 14V1.31738H44.3232V14H42.4248ZM50.2207 14.1846C47.5049 14.1846 45.8613 12.3301 45.8613 9.41211V9.40332C45.8613 6.51172 47.5312 4.57812 50.124 4.57812C52.7168 4.57812 54.3076 6.44141 54.3076 9.21875V9.86035H47.7598C47.7949 11.6094 48.7529 12.6289 50.2646 12.6289C51.3896 12.6289 52.1367 12.0488 52.374 11.3545L52.4004 11.2842H54.2021L54.1846 11.3809C53.8857 12.8486 52.4619 14.1846 50.2207 14.1846ZM50.1328 6.13379C48.9023 6.13379 47.9531 6.96875 47.7861 8.51562H52.4268C52.2686 6.91602 51.3721 6.13379 50.1328 6.13379ZM55.7842 14V4.75391H57.6826V6.15137H57.7266C58.21 5.21094 59.1592 4.57812 60.5566 4.57812C62.5869 4.57812 63.7559 5.8877 63.7559 8.01465V14H61.8486V8.375C61.8486 6.98633 61.1982 6.2041 59.8799 6.2041C58.5439 6.2041 57.6826 7.1709 57.6826 8.6123V14H55.7842ZM68.8359 14.1846C67.0078 14.1846 66.1289 13.4111 66.1289 11.5654V6.26562H64.8018V4.75391H66.1289V2.3457H68.0713V4.75391H69.8027V6.26562H68.0713V11.4512C68.0713 12.3916 68.4932 12.6729 69.293 12.6729C69.4951 12.6729 69.6621 12.6553 69.8027 12.6377V14.1055C69.583 14.1406 69.2227 14.1846 68.8359 14.1846Z" fill="black"/>
<g clip-path="url(#clip0_267_4079)">
<rect width="400" height="5" rx="2.5" transform="matrix(-1 0 0 1 532 5.5)" fill="#D9D9D9"/>
<rect width="400" height="5" rx="2.5" transform="matrix(-1 0 0 1 532 5.5)" fill="#FFB547"/>
</g>
<path opacity="0.4" d="M542.445 14V4.46094H542.406L539.461 6.49219V4.83594L542.43 2.72656H544.156V14H542.445ZM551.023 14.1875C548.328 14.1875 546.719 11.9453 546.719 8.36719V8.35156C546.719 4.77344 548.328 2.53906 551.023 2.53906C553.711 2.53906 555.328 4.77344 555.328 8.35156V8.36719C555.328 11.9453 553.711 14.1875 551.023 14.1875ZM551.023 12.7266C552.625 12.7266 553.562 11.0703 553.562 8.36719V8.35156C553.562 5.64844 552.625 4.00781 551.023 4.00781C549.414 4.00781 548.484 5.64844 548.484 8.35156V8.36719C548.484 11.0703 549.414 12.7266 551.023 12.7266ZM561.008 14.1875C558.312 14.1875 556.703 11.9453 556.703 8.36719V8.35156C556.703 4.77344 558.312 2.53906 561.008 2.53906C563.695 2.53906 565.312 4.77344 565.312 8.35156V8.36719C565.312 11.9453 563.695 14.1875 561.008 14.1875ZM561.008 12.7266C562.609 12.7266 563.547 11.0703 563.547 8.36719V8.35156C563.547 5.64844 562.609 4.00781 561.008 4.00781C559.398 4.00781 558.469 5.64844 558.469 8.35156V8.36719C558.469 11.0703 559.398 12.7266 561.008 12.7266Z" fill="black"/>
<path d="M12.0938 48.7266C12.0938 52.1631 10.0635 54.2109 6.62695 54.2109C2.99707 54.2109 0.711914 51.6709 0.711914 47.6016C0.711914 43.6025 2.98828 41.1064 6.60059 41.1064C9.42188 41.1064 11.5576 42.7764 11.9971 45.3076H9.97559C9.50098 43.7344 8.26172 42.8291 6.60938 42.8291C4.18359 42.8291 2.72461 44.6045 2.72461 47.584C2.72461 50.6162 4.22754 52.4883 6.64453 52.4883C8.70117 52.4883 10.125 51.1699 10.1514 49.2451V49.0254H6.87305V47.4346H12.0938V48.7266ZM17.7627 54.1758C15.1172 54.1758 13.377 52.3564 13.377 49.377C13.377 46.4062 15.126 44.5869 17.7627 44.5869C20.3994 44.5869 22.1484 46.4062 22.1484 49.377C22.1484 52.3564 20.4082 54.1758 17.7627 54.1758ZM17.7627 52.6113C19.2568 52.6113 20.2148 51.4336 20.2148 49.377C20.2148 47.3291 19.248 46.1514 17.7627 46.1514C16.2773 46.1514 15.3105 47.3291 15.3105 49.377C15.3105 51.4336 16.2773 52.6113 17.7627 52.6113ZM27.5889 54.1758C24.9434 54.1758 23.2031 52.3564 23.2031 49.377C23.2031 46.4062 24.9521 44.5869 27.5889 44.5869C30.2256 44.5869 31.9746 46.4062 31.9746 49.377C31.9746 52.3564 30.2344 54.1758 27.5889 54.1758ZM27.5889 52.6113C29.083 52.6113 30.041 51.4336 30.041 49.377C30.041 47.3291 29.0742 46.1514 27.5889 46.1514C26.1035 46.1514 25.1367 47.3291 25.1367 49.377C25.1367 51.4336 26.1035 52.6113 27.5889 52.6113ZM36.9141 54.1582C34.5762 54.1582 33.0293 52.2949 33.0293 49.377C33.0293 46.459 34.5762 44.6045 36.8965 44.6045C38.2236 44.6045 39.2783 45.2725 39.7969 46.292H39.832V41.3174H41.7393V54H39.8936V52.4268H39.8584C39.3135 53.4814 38.2588 54.1582 36.9141 54.1582ZM37.415 46.2041C35.9121 46.2041 34.9717 47.4346 34.9717 49.377C34.9717 51.3281 35.9121 52.5498 37.415 52.5498C38.874 52.5498 39.8496 51.3105 39.8496 49.377C39.8496 47.4609 38.874 46.2041 37.415 46.2041Z" fill="black"/>
<g clip-path="url(#clip1_267_4079)">
<rect width="259" height="5" rx="2.5" transform="matrix(-1 0 0 1 532 45.5)" fill="#D9D9D9"/>
<rect width="259" height="5" rx="2.5" transform="matrix(-1 0 0 1 391 45.5)" fill="#FFB547"/>
</g>
<path opacity="0.4" d="M559.102 54V44.4609H559.062L556.117 46.4922V44.8359L559.086 42.7266H560.812V54H559.102ZM566.414 54V44.4609H566.375L563.43 46.4922V44.8359L566.398 42.7266H568.125V54H566.414Z" fill="black"/>
<path d="M9.43066 94L8.27051 90.5723H3.43652L2.27637 94H0.228516L4.80762 81.3174H6.93457L11.5137 94H9.43066ZM5.82715 83.4268L3.9375 88.9902H7.76953L5.87988 83.4268H5.82715ZM19.8193 84.7539L16.5059 94H14.4668L11.1357 84.7539H13.1572L15.4775 92.1455H15.5127L17.833 84.7539H19.8193ZM24.5127 86.1162C23.1855 86.1162 22.2539 87.127 22.1572 88.5244H26.7803C26.7363 87.1094 25.8398 86.1162 24.5127 86.1162ZM26.7715 91.2842H28.5732C28.3096 92.9717 26.71 94.1758 24.5918 94.1758C21.876 94.1758 20.2324 92.3389 20.2324 89.4209C20.2324 86.5205 21.9023 84.5869 24.5127 84.5869C27.0791 84.5869 28.6787 86.3975 28.6787 89.2012V89.8516H22.1484V89.9658C22.1484 91.5742 23.1152 92.6377 24.6357 92.6377C25.7168 92.6377 26.5166 92.0928 26.7715 91.2842ZM30.1553 94V84.7539H31.9658V86.3271H32.0098C32.3174 85.2461 33.1436 84.6045 34.2334 84.6045C34.5059 84.6045 34.7432 84.6484 34.8838 84.6748V86.4414C34.7344 86.3799 34.4004 86.3359 34.0312 86.3359C32.8096 86.3359 32.0537 87.1533 32.0537 88.4629V94H30.1553ZM39.1025 92.6553C40.4297 92.6553 41.4668 91.7412 41.4668 90.5371V89.8076L39.1904 89.9482C38.0566 90.0273 37.415 90.5283 37.415 91.3193C37.415 92.1279 38.083 92.6553 39.1025 92.6553ZM38.5752 94.1582C36.7646 94.1582 35.499 93.0332 35.499 91.3721C35.499 89.7549 36.7383 88.7617 38.9355 88.6387L41.4668 88.4893V87.7773C41.4668 86.749 40.7725 86.1338 39.6123 86.1338C38.5137 86.1338 37.8281 86.6611 37.6611 87.4873H35.8682C35.9736 85.8174 37.3975 84.5869 39.6826 84.5869C41.9238 84.5869 43.3564 85.7734 43.3564 87.6279V94H41.5371V92.4795H41.4932C40.957 93.5078 39.7881 94.1582 38.5752 94.1582ZM49.1396 92.4619C50.625 92.4619 51.6006 91.2578 51.6006 89.3506C51.6006 87.4521 50.625 86.2041 49.1396 86.2041C47.6807 86.2041 46.7314 87.4258 46.7314 89.3506C46.7314 91.2842 47.6807 92.4619 49.1396 92.4619ZM49.1572 97.4805C46.9775 97.4805 45.3604 96.3203 45.123 94.7207H47.0303C47.3027 95.4941 48.1465 96.0039 49.2275 96.0039C50.7129 96.0039 51.5918 95.1602 51.5918 93.8945V92.374H51.5566C51.0381 93.376 49.9482 94.0352 48.6299 94.0352C46.3096 94.0352 44.7891 92.2246 44.7891 89.3418C44.7891 86.4326 46.3008 84.6045 48.6738 84.6045C49.9834 84.6045 51.0557 85.2637 51.6182 86.3359H51.6533V84.7539H53.499V93.833C53.499 96.0391 51.7939 97.4805 49.1572 97.4805ZM59.2471 86.1162C57.9199 86.1162 56.9883 87.127 56.8916 88.5244H61.5146C61.4707 87.1094 60.5742 86.1162 59.2471 86.1162ZM61.5059 91.2842H63.3076C63.0439 92.9717 61.4443 94.1758 59.3262 94.1758C56.6104 94.1758 54.9668 92.3389 54.9668 89.4209C54.9668 86.5205 56.6367 84.5869 59.2471 84.5869C61.8135 84.5869 63.4131 86.3975 63.4131 89.2012V89.8516H56.8828V89.9658C56.8828 91.5742 57.8496 92.6377 59.3701 92.6377C60.4512 92.6377 61.251 92.0928 61.5059 91.2842Z" fill="black"/>
<g clip-path="url(#clip2_267_4079)">
<rect width="202.5" height="5" rx="2.5" transform="matrix(-1 0 0 1 532 85.5)" fill="#D9D9D9"/>
<rect width="202.5" height="5" rx="2.5" transform="matrix(-1 0 0 1 334.5 85.5)" fill="#FFB547"/>
</g>
<path opacity="0.4" d="M560.125 94.1875C557.719 94.1875 556.148 92.875 555.992 91.0391L555.984 90.9375H557.664L557.672 91.0234C557.781 92.0234 558.727 92.7266 560.125 92.7266C561.5 92.7266 562.43 91.9609 562.43 90.8672V90.8516C562.43 89.5781 561.508 88.8672 560 88.8672H558.633V87.5078H559.953C561.242 87.5078 562.117 86.75 562.117 85.7031V85.6875C562.117 84.6016 561.383 83.9688 560.109 83.9688C558.859 83.9688 557.984 84.625 557.875 85.6719L557.867 85.7422H556.227L556.234 85.6641C556.406 83.7812 557.906 82.5391 560.109 82.5391C562.352 82.5391 563.82 83.7266 563.82 85.4609V85.4766C563.82 86.875 562.82 87.8125 561.445 88.1016V88.1406C563.102 88.2891 564.211 89.2891 564.211 90.8672V90.8828C564.211 92.8125 562.516 94.1875 560.125 94.1875Z" fill="black"/>
<path d="M6.25781 134H1.16895V121.317H6.23145C8.48145 121.317 9.95801 122.565 9.95801 124.481C9.95801 125.826 8.96484 127.03 7.69922 127.241V127.312C9.42188 127.505 10.582 128.727 10.582 130.414C10.582 132.646 8.95605 134 6.25781 134ZM3.1377 122.926V126.714H5.34375C7.04883 126.714 7.98926 126.011 7.98926 124.754C7.98926 123.576 7.18066 122.926 5.75684 122.926H3.1377ZM3.1377 132.392H5.85352C7.62891 132.392 8.56934 131.662 8.56934 130.291C8.56934 128.92 7.60254 128.217 5.73926 128.217H3.1377V132.392ZM15.917 126.116C14.5898 126.116 13.6582 127.127 13.5615 128.524H18.1846C18.1406 127.109 17.2441 126.116 15.917 126.116ZM18.1758 131.284H19.9775C19.7139 132.972 18.1143 134.176 15.9961 134.176C13.2803 134.176 11.6367 132.339 11.6367 129.421C11.6367 126.521 13.3066 124.587 15.917 124.587C18.4834 124.587 20.083 126.397 20.083 129.201V129.852H13.5527V129.966C13.5527 131.574 14.5195 132.638 16.04 132.638C17.1211 132.638 17.9209 132.093 18.1758 131.284ZM21.6299 134V121.317H23.5283V134H21.6299ZM29.4521 134.176C26.8066 134.176 25.0664 132.356 25.0664 129.377C25.0664 126.406 26.8154 124.587 29.4521 124.587C32.0889 124.587 33.8379 126.406 33.8379 129.377C33.8379 132.356 32.0977 134.176 29.4521 134.176ZM29.4521 132.611C30.9463 132.611 31.9043 131.434 31.9043 129.377C31.9043 127.329 30.9375 126.151 29.4521 126.151C27.9668 126.151 27 127.329 27 129.377C27 131.434 27.9668 132.611 29.4521 132.611ZM47.4697 124.754L44.9385 134H42.9609L41.0186 127.074H40.9746L39.0498 134H37.0898L34.5498 124.754H36.4482L38.1357 132.031H38.1709L40.0957 124.754H41.9238L43.8574 132.031H43.9014L45.5889 124.754H47.4697ZM60.7764 134L59.6162 130.572H54.7822L53.6221 134H51.5742L56.1533 121.317H58.2803L62.8594 134H60.7764ZM57.1729 123.427L55.2832 128.99H59.1152L57.2256 123.427H57.1729ZM71.165 124.754L67.8516 134H65.8125L62.4814 124.754H64.5029L66.8232 132.146H66.8584L69.1787 124.754H71.165ZM75.8584 126.116C74.5312 126.116 73.5996 127.127 73.5029 128.524H78.126C78.082 127.109 77.1855 126.116 75.8584 126.116ZM78.1172 131.284H79.9189C79.6553 132.972 78.0557 134.176 75.9375 134.176C73.2217 134.176 71.5781 132.339 71.5781 129.421C71.5781 126.521 73.248 124.587 75.8584 124.587C78.4248 124.587 80.0244 126.397 80.0244 129.201V129.852H73.4941V129.966C73.4941 131.574 74.4609 132.638 75.9814 132.638C77.0625 132.638 77.8623 132.093 78.1172 131.284ZM81.501 134V124.754H83.3115V126.327H83.3555C83.6631 125.246 84.4893 124.604 85.5791 124.604C85.8516 124.604 86.0889 124.648 86.2295 124.675V126.441C86.0801 126.38 85.7461 126.336 85.377 126.336C84.1553 126.336 83.3994 127.153 83.3994 128.463V134H81.501ZM90.4482 132.655C91.7754 132.655 92.8125 131.741 92.8125 130.537V129.808L90.5361 129.948C89.4023 130.027 88.7607 130.528 88.7607 131.319C88.7607 132.128 89.4287 132.655 90.4482 132.655ZM89.9209 134.158C88.1104 134.158 86.8447 133.033 86.8447 131.372C86.8447 129.755 88.084 128.762 90.2812 128.639L92.8125 128.489V127.777C92.8125 126.749 92.1182 126.134 90.958 126.134C89.8594 126.134 89.1738 126.661 89.0068 127.487H87.2139C87.3193 125.817 88.7432 124.587 91.0283 124.587C93.2695 124.587 94.7021 125.773 94.7021 127.628V134H92.8828V132.479H92.8389C92.3027 133.508 91.1338 134.158 89.9209 134.158ZM100.485 132.462C101.971 132.462 102.946 131.258 102.946 129.351C102.946 127.452 101.971 126.204 100.485 126.204C99.0264 126.204 98.0771 127.426 98.0771 129.351C98.0771 131.284 99.0264 132.462 100.485 132.462ZM100.503 137.48C98.3232 137.48 96.7061 136.32 96.4688 134.721H98.376C98.6484 135.494 99.4922 136.004 100.573 136.004C102.059 136.004 102.938 135.16 102.938 133.895V132.374H102.902C102.384 133.376 101.294 134.035 99.9756 134.035C97.6553 134.035 96.1348 132.225 96.1348 129.342C96.1348 126.433 97.6465 124.604 100.02 124.604C101.329 124.604 102.401 125.264 102.964 126.336H102.999V124.754H104.845V133.833C104.845 136.039 103.14 137.48 100.503 137.48ZM110.593 126.116C109.266 126.116 108.334 127.127 108.237 128.524H112.86C112.816 127.109 111.92 126.116 110.593 126.116ZM112.852 131.284H114.653C114.39 132.972 112.79 134.176 110.672 134.176C107.956 134.176 106.312 132.339 106.312 129.421C106.312 126.521 107.982 124.587 110.593 124.587C113.159 124.587 114.759 126.397 114.759 129.201V129.852H108.229V129.966C108.229 131.574 109.195 132.638 110.716 132.638C111.797 132.638 112.597 132.093 112.852 131.284Z" fill="black"/>
<g clip-path="url(#clip3_267_4079)">
<rect width="210" height="5" rx="2.5" transform="matrix(-1 0 0 1 532 125.5)" fill="#D9D9D9"/>
<rect width="210" height="5" rx="2.5" transform="matrix(-1 0 0 1 342 125.5)" fill="#FFB547"/>
</g>
<path opacity="0.4" d="M557.062 134.188C554.57 134.188 552.805 132.852 552.805 130.945V130.93C552.805 129.508 553.828 128.383 555.297 128.062V128.023C554.039 127.664 553.219 126.727 553.219 125.531V125.516C553.219 123.797 554.82 122.539 557.062 122.539C559.305 122.539 560.914 123.797 560.914 125.516V125.531C560.914 126.727 560.094 127.664 558.836 128.023V128.062C560.305 128.383 561.32 129.508 561.32 130.93V130.945C561.32 132.852 559.562 134.188 557.062 134.188ZM557.062 127.438C558.32 127.438 559.18 126.711 559.18 125.688V125.672C559.18 124.641 558.312 123.922 557.062 123.922C555.812 123.922 554.953 124.641 554.953 125.672V125.688C554.953 126.711 555.812 127.438 557.062 127.438ZM557.062 132.789C558.5 132.789 559.523 131.969 559.523 130.828V130.812C559.523 129.664 558.508 128.836 557.062 128.836C555.617 128.836 554.602 129.664 554.602 130.812V130.828C554.602 131.969 555.625 132.789 557.062 132.789Z" fill="black"/>
<path d="M1.16895 161.317H5.92383C8.38477 161.317 10.0986 163.014 10.0986 165.483C10.0986 167.962 8.34961 169.667 5.8623 169.667H3.1377V174H1.16895V161.317ZM3.1377 162.979V168.015H5.39648C7.11035 168.015 8.08594 167.092 8.08594 165.492C8.08594 163.893 7.11035 162.979 5.40527 162.979H3.1377ZM15.1611 174.176C12.5156 174.176 10.7754 172.356 10.7754 169.377C10.7754 166.406 12.5244 164.587 15.1611 164.587C17.7979 164.587 19.5469 166.406 19.5469 169.377C19.5469 172.356 17.8066 174.176 15.1611 174.176ZM15.1611 172.611C16.6553 172.611 17.6133 171.434 17.6133 169.377C17.6133 167.329 16.6465 166.151 15.1611 166.151C13.6758 166.151 12.709 167.329 12.709 169.377C12.709 171.434 13.6758 172.611 15.1611 172.611ZM24.9873 174.176C22.3418 174.176 20.6016 172.356 20.6016 169.377C20.6016 166.406 22.3506 164.587 24.9873 164.587C27.624 164.587 29.373 166.406 29.373 169.377C29.373 172.356 27.6328 174.176 24.9873 174.176ZM24.9873 172.611C26.4814 172.611 27.4395 171.434 27.4395 169.377C27.4395 167.329 26.4727 166.151 24.9873 166.151C23.502 166.151 22.5352 167.329 22.5352 169.377C22.5352 171.434 23.502 172.611 24.9873 172.611ZM30.8408 174V164.754H32.6514V166.327H32.6953C33.0029 165.246 33.8291 164.604 34.9189 164.604C35.1914 164.604 35.4287 164.648 35.5693 164.675V166.441C35.4199 166.38 35.0859 166.336 34.7168 166.336C33.4951 166.336 32.7393 167.153 32.7393 168.463V174H30.8408Z" fill="black"/>
<g clip-path="url(#clip4_267_4079)">
<rect width="200.5" height="5" rx="2.5" transform="matrix(-1 0 0 1 532 165.5)" fill="#D9D9D9"/>
<rect width="200.5" height="5" rx="2.5" transform="matrix(-1 0 0 1 332.5 165.5)" fill="#FFB547"/>
</g>
<path opacity="0.4" d="M555.414 174V164.461H555.375L552.43 166.492V164.836L555.398 162.727H557.125V174H555.414Z" fill="black"/>
<defs>
<clipPath id="clip0_267_4079">
<rect width="400" height="5" fill="white" transform="matrix(-1 0 0 1 532 5.5)"/>
</clipPath>
<clipPath id="clip1_267_4079">
<rect width="400" height="5" fill="white" transform="matrix(-1 0 0 1 532 45.5)"/>
</clipPath>
<clipPath id="clip2_267_4079">
<rect width="400" height="5" fill="white" transform="matrix(-1 0 0 1 532 85.5)"/>
</clipPath>
<clipPath id="clip3_267_4079">
<rect width="400" height="5" fill="white" transform="matrix(-1 0 0 1 532 125.5)"/>
</clipPath>
<clipPath id="clip4_267_4079">
<rect width="400" height="5" fill="white" transform="matrix(-1 0 0 1 532 165.5)"/>
</clipPath>
</defs>
</svg>
