<svg width="117" height="24" viewBox="0 0 117 24" fill="none" xmlns="http://www.w3.org/2000/svg">
<path d="M10.4363 3.35577C11.0554 2.0271 12.9446 2.0271 13.5637 3.35577L15.0026 6.4436C15.254 6.98311 15.7658 7.35492 16.3566 7.4273L19.7379 7.84158C21.1929 8.01983 21.7767 9.81657 20.7044 10.816L18.2123 13.1387C17.7769 13.5445 17.5814 14.1461 17.6952 14.7303L18.346 18.0742C18.6261 19.513 17.0977 20.6235 15.8159 19.9125L12.8368 18.2601C12.3163 17.9714 11.6837 17.9714 11.1632 18.2601L8.18415 19.9125C6.90227 20.6235 5.37388 19.513 5.65395 18.0742L6.30485 14.7303C6.41857 14.1461 6.2231 13.5445 5.78768 13.1387L3.29562 10.816C2.22331 9.81657 2.8071 8.01983 4.26207 7.84158L7.64342 7.4273C8.23421 7.35492 8.74596 6.98311 8.99736 6.4436L10.4363 3.35577Z" fill="#FFB547"/>
<path d="M33.5739 3.35577C34.1931 2.0271 36.0823 2.0271 36.7014 3.35577L38.1403 6.4436C38.3917 6.98311 38.9035 7.35492 39.4943 7.4273L42.8756 7.84158C44.3306 8.01983 44.9144 9.81657 43.8421 10.816L41.35 13.1387C40.9146 13.5445 40.7191 14.1461 40.8328 14.7303L41.4837 18.0742C41.7638 19.513 40.2354 20.6235 38.9535 19.9125L35.9745 18.2601C35.454 17.9714 34.8214 17.9714 34.3009 18.2601L31.3218 19.9125C30.04 20.6235 28.5116 19.513 28.7916 18.0742L29.4425 14.7303C29.5563 14.1461 29.3608 13.5445 28.9254 13.1387L26.4333 10.816C25.361 9.81657 25.9448 8.01983 27.3998 7.84158L30.7811 7.4273C31.3719 7.35492 31.8837 6.98311 32.1351 6.4436L33.5739 3.35577Z" fill="#FFB547"/>
<path d="M56.7107 3.35577C57.3298 2.0271 59.219 2.0271 59.8382 3.35577L61.277 6.4436C61.5285 6.98311 62.0402 7.35492 62.631 7.4273L66.0123 7.84158C67.4673 8.01983 68.0511 9.81657 66.9788 10.816L64.4867 13.1387C64.0513 13.5445 63.8558 14.1461 63.9696 14.7303L64.6205 18.0742C64.9005 19.513 63.3721 20.6235 62.0903 19.9125L59.1112 18.2601C58.5907 17.9714 57.9581 17.9714 57.4376 18.2601L54.4586 19.9125C53.1767 20.6235 51.6483 19.513 51.9284 18.0742L52.5793 14.7303C52.693 14.1461 52.4975 13.5445 52.0621 13.1387L49.57 10.816C48.4977 9.81657 49.0815 8.01983 50.5365 7.84158L53.9178 7.4273C54.5086 7.35492 55.0204 6.98311 55.2718 6.4436L56.7107 3.35577Z" fill="#FFB547"/>
<path d="M79.8484 3.35577C80.4675 2.0271 82.3567 2.0271 82.9759 3.35577L84.4147 6.4436C84.6661 6.98311 85.1779 7.35492 85.7687 7.4273L89.15 7.84158C90.605 8.01983 91.1888 9.81657 90.1165 10.816L87.6244 13.1387C87.189 13.5445 86.9935 14.1461 87.1073 14.7303L87.7582 18.0742C88.0382 19.513 86.5098 20.6235 85.228 19.9125L82.2489 18.2601C81.7284 17.9714 81.0958 17.9714 80.5753 18.2601L77.5963 19.9125C76.3144 20.6235 74.786 19.513 75.0661 18.0742L75.717 14.7303C75.8307 14.1461 75.6352 13.5445 75.1998 13.1387L72.7077 10.816C71.6354 9.81657 72.2192 8.01983 73.6742 7.84158L77.0555 7.4273C77.6463 7.35492 78.1581 6.98311 78.4095 6.4436L79.8484 3.35577Z" fill="#FFB547"/>
<path d="M103.439 3.56696C103.879 2.62337 105.221 2.62337 105.66 3.56696L107.099 6.65479C107.423 7.35066 108.084 7.83023 108.846 7.92359L112.227 8.33786C113.26 8.46446 113.675 9.74046 112.913 10.4502L110.421 12.7729C109.86 13.2963 109.607 14.0723 109.754 14.8259L110.405 18.1697C110.604 19.1915 109.519 19.9802 108.608 19.4752L105.629 17.8229C104.958 17.4505 104.142 17.4505 103.47 17.8229L100.491 19.4752C99.5811 19.9802 98.4956 19.1915 98.6945 18.1697L99.3454 14.8258C99.4921 14.0723 99.24 13.2963 98.6784 12.7729L96.1863 10.4502C95.4248 9.74046 95.8394 8.46446 96.8727 8.33786L100.254 7.92359C101.016 7.83023 101.676 7.35066 102 6.65479L103.439 3.56696Z" stroke="#FFB547"/>
</svg>
